<?xml version="1.0" standalone="no"?><!DOCTYPE svg PUBLIC "-//W3C//DTD SVG 1.1//EN" "http://www.w3.org/Graphics/SVG/1.1/DTD/svg11.dtd"><svg t="1635782099517" class="icon" viewBox="0 0 1024 1024" version="1.1" xmlns="http://www.w3.org/2000/svg" p-id="634" xmlns:xlink="http://www.w3.org/1999/xlink" width="200" height="200"><defs><style type="text/css"></style></defs><path d="M512 512m-512 0a512 512 0 1 0 1024 0 512 512 0 1 0-1024 0Z" fill="#768FFF" p-id="635"></path><path d="M417.769244 528.930133c12.288 20.798578 22.528 41.597156 28.672 60.302223 2.048 4.164267 4.096 8.305778 4.096 14.563555 0 10.376533-2.048 16.611556-12.288 20.775822-8.192 2.093511-14.336 0-20.48-8.305777-2.048-4.164267-6.144-10.399289-8.192-14.563556-34.816-62.372978-69.632-126.839467-104.470755-191.2832-4.096-8.328533-10.24-12.470044-18.432-10.399289h-18.432c-16.384 0-24.576-10.399289-24.576-22.869333 2.048-12.4928 10.24-20.798578 24.576-20.798578h86.016c14.336 2.070756 22.528 10.399289 22.528 22.869333 0 10.399289-8.192 18.727822-22.528 20.798578h-12.288c14.336 24.940089 28.672 49.902933 40.96 74.865778 4.096 4.141511 6.144 2.048 10.24 0a7085.784178 7085.784178 0 0 1 143.405511-116.462933c4.096-2.070756 6.144-4.141511 2.048-10.399289-8.192-14.563556-18.432-31.175111-26.624-47.809423-4.096-6.235022-6.144-6.235022-12.288-6.235022H415.744c-12.288-2.093511-20.48-10.399289-20.48-22.869333 0-12.470044 10.24-20.798578 22.528-20.798578h102.4c10.24 0 16.384 6.235022 20.48 14.563556 53.270756 93.548089 106.541511 185.048178 159.789511 278.619022 6.144 10.399289 12.288 22.869333 18.432 33.268622 8.192 14.563556 6.144 24.940089-4.096 31.175111-12.288 6.235022-22.528 2.093511-30.72-12.470044-34.816-62.372978-69.632-122.6752-104.448-185.048178-2.048-2.093511-4.096-6.235022-6.144-10.399289-2.048-6.235022-4.096-6.235022-10.262755-2.070755a7044.437333 7044.437333 0 0 1-143.382756 116.417422c-6.144 6.257778-4.096 10.399289-2.048 14.563555z m434.267023-8.305777c24.576 79.007289-8.192 166.343111-79.872 203.753244-71.702756 39.503644-163.885511 20.798578-215.108267-43.667911-51.2-64.443733-51.2-158.014578 0-216.246045 2.048 4.164267 2.048 6.257778 4.096 8.328534 12.288 20.798578 16.384 39.503644 8.192 66.537244-22.528 68.608 24.576 145.544533 96.278756 160.108089 69.632 14.563556 141.357511-35.362133 149.549511-106.040889 10.24-72.795022-34.816-133.074489-104.470756-145.567289-10.24 0-16.384-4.141511-20.48-14.5408-4.096-8.328533-10.24-18.727822-14.336-29.127111 73.728-10.376533 151.552 41.597156 176.128 116.462934z m-438.363023 141.380266c6.144 10.399289 12.288 20.798578 18.432 29.127111 6.144 8.305778 4.096 14.5408-2.048 20.775823-47.104 45.738667-124.950756 49.902933-176.150755 6.235022-75.798756-62.372978-61.462756-182.954667 26.624-226.645334 8.192-4.141511 12.288-4.141511 16.384 4.164267 6.144 10.399289 14.336 18.705067 20.48 29.127111-45.056 16.611556-71.68 47.786667-67.584 97.712356 4.096 37.410133 24.576 62.372978 59.392 74.865778 40.96 12.447289 75.776 0 104.470755-35.362134z" fill="#FFFFFF" p-id="636"></path></svg>